<svg width="145" height="86" viewBox="0 0 145 86" fill="none" xmlns="http://www.w3.org/2000/svg">
<rect width="144.573" height="86" rx="8.47992" fill="black"/>
<rect x="0.176665" y="0.176665" width="144.22" height="85.6467" rx="8.30325" stroke="white" stroke-opacity="0.5" stroke-width="0.35333"/>
<path d="M130.862 15.8669H19.3781V16.2063H130.862V15.8669Z" fill="#FDFEFF"/>
<path d="M130.862 19.6648H19.3781V20.0041H130.862V19.6648Z" fill="#FDFEFF"/>
<path d="M130.862 23.4629H19.3781V23.8022H130.862V23.4629Z" fill="#FDFEFF"/>
<path d="M130.862 27.2654H19.3781V27.6094H130.862V27.2654Z" fill="#FDFEFF"/>
<path d="M130.862 31.0635H19.3781V31.4075H130.862V31.0635Z" fill="#FDFEFF"/>
<path d="M130.862 34.8613H19.3781V35.2053H130.862V34.8613Z" fill="#FDFEFF"/>
<path d="M130.862 38.6592H19.3781V38.9985H130.862V38.6592Z" fill="#FDFEFF"/>
<path d="M130.862 42.4573H19.3781V42.8013H130.862V42.4573Z" fill="#FDFEFF"/>
<path d="M130.862 46.2554H19.3781V46.5947H130.862V46.2554Z" fill="#FDFEFF"/>
<path d="M130.862 50.0576H19.3781V50.397H130.862V50.0576Z" fill="#FDFEFF"/>
<path d="M130.862 53.8557H19.3781V54.1951H130.862V53.8557Z" fill="#FDFEFF"/>
<path d="M130.862 57.6536H19.3781V57.9929H130.862V57.6536Z" fill="#FDFEFF"/>
<path d="M130.862 61.4517H19.3781V61.791H130.862V61.4517Z" fill="#FDFEFF"/>
<path d="M130.862 65.2495H19.3781V65.5889H130.862V65.2495Z" fill="#FDFEFF"/>
<path d="M19.4201 15.9692H19.0807V65.5703H19.4201V15.9692Z" fill="#FDFEFF"/>
<path d="M29.5634 15.9692H29.224V65.5703H29.5634V15.9692Z" fill="#FDFEFF"/>
<path d="M39.7069 15.9692H39.3676V65.5703H39.7069V15.9692Z" fill="#FDFEFF"/>
<path d="M49.8502 15.9692H49.5108V65.5703H49.8502V15.9692Z" fill="#FDFEFF"/>
<path d="M59.9934 15.9692H59.6541V65.5703H59.9934V15.9692Z" fill="#FDFEFF"/>
<path d="M70.1322 15.9692H69.7929V65.5703H70.1322V15.9692Z" fill="#FDFEFF"/>
<path d="M80.2755 15.9692H79.9361V65.5703H80.2755V15.9692Z" fill="#FDFEFF"/>
<path d="M90.419 15.9692H90.0797V65.5703H90.419V15.9692Z" fill="#FDFEFF"/>
<path d="M100.562 15.9692H100.223V65.5703H100.562V15.9692Z" fill="#FDFEFF"/>
<path d="M110.706 15.9692H110.366V65.5703H110.706V15.9692Z" fill="#FDFEFF"/>
<path d="M120.849 15.9692H120.509V65.5703H120.849V15.9692Z" fill="#FDFEFF"/>
<path d="M130.988 15.9692H130.648V65.5703H130.988V15.9692Z" fill="#FDFEFF"/>
<path d="M27.0051 71.4194H25.5717V71.2196L26.329 70.3781C26.4412 70.2509 26.5183 70.1477 26.5604 70.0686C26.6034 69.9885 26.625 69.9058 26.625 69.8207C26.625 69.7065 26.5904 69.6128 26.5213 69.5397C26.4522 69.4666 26.36 69.43 26.2448 69.43C26.1066 69.43 25.9989 69.4696 25.9218 69.5487C25.8456 69.6268 25.8076 69.736 25.8076 69.8763H25.5296C25.5296 69.6749 25.5942 69.5121 25.7234 69.3879C25.8537 69.2637 26.0275 69.2016 26.2448 69.2016C26.4482 69.2016 26.609 69.2552 26.7272 69.3624C26.8454 69.4686 26.9045 69.6103 26.9045 69.7876C26.9045 70.003 26.7672 70.2594 26.4928 70.5569L25.9067 71.1925H27.0051V71.4194ZM28.6715 70.4863C28.6715 70.8119 28.6159 71.0538 28.5047 71.2121C28.3935 71.3703 28.2197 71.4495 27.9833 71.4495C27.7499 71.4495 27.5771 71.3724 27.4649 71.2181C27.3527 71.0628 27.2946 70.8314 27.2906 70.5239V70.1527C27.2906 69.8312 27.3462 69.5923 27.4574 69.436C27.5686 69.2797 27.7429 69.2016 27.9803 69.2016C28.2157 69.2016 28.389 69.2772 28.5002 69.4285C28.6114 69.5788 28.6685 69.8112 28.6715 70.1257V70.4863ZM28.3935 70.1062C28.3935 69.8708 28.3605 69.6995 28.2944 69.5923C28.2283 69.4841 28.1236 69.43 27.9803 69.43C27.8381 69.43 27.7344 69.4836 27.6693 69.5908C27.6042 69.698 27.5706 69.8627 27.5686 70.0851V70.5299C27.5686 70.7663 27.6027 70.9411 27.6708 71.0543C27.7399 71.1665 27.8441 71.2226 27.9833 71.2226C28.1206 71.2226 28.2222 71.1695 28.2884 71.0633C28.3555 70.9571 28.3905 70.7898 28.3935 70.5615V70.1062ZM29.9412 71.4194H29.6617V69.5667L29.1013 69.7726V69.5202L29.8976 69.2211H29.9412V71.4194ZM30.8833 70.3225L30.9945 69.2317H32.1155V69.4886H31.2304L31.1643 70.0851C31.2715 70.022 31.3932 69.9905 31.5295 69.9905C31.7288 69.9905 31.8871 70.0566 32.0043 70.1888C32.1215 70.32 32.1801 70.4978 32.1801 70.7222C32.1801 70.9476 32.119 71.1254 31.9968 71.2557C31.8756 71.3849 31.7058 71.4495 31.4874 71.4495C31.294 71.4495 31.1363 71.3959 31.0141 71.2887C30.8919 71.1815 30.8222 71.0333 30.8052 70.8439H31.0682C31.0852 70.9692 31.1298 71.0638 31.2019 71.1279C31.274 71.191 31.3692 71.2226 31.4874 71.2226C31.6166 71.2226 31.7178 71.1785 31.7909 71.0904C31.865 71.0022 31.9021 70.8805 31.9021 70.7252C31.9021 70.579 31.862 70.4618 31.7819 70.3736C31.7028 70.2845 31.5971 70.2399 31.4648 70.2399C31.3436 70.2399 31.2485 70.2664 31.1793 70.3195L31.1057 70.3796L30.8833 70.3225Z" fill="#F5F7F6"/>
<path d="M37.5522 71.4194H36.1188V71.2196L36.8761 70.3781C36.9883 70.2509 37.0654 70.1477 37.1075 70.0686C37.1505 69.9885 37.1721 69.9058 37.1721 69.8207C37.1721 69.7065 37.1375 69.6128 37.0684 69.5397C36.9993 69.4666 36.9071 69.43 36.7919 69.43C36.6537 69.43 36.546 69.4696 36.4689 69.5487C36.3927 69.6268 36.3547 69.736 36.3547 69.8763H36.0767C36.0767 69.6749 36.1413 69.5121 36.2705 69.3879C36.4008 69.2637 36.5746 69.2016 36.7919 69.2016C36.9953 69.2016 37.1561 69.2552 37.2743 69.3624C37.3925 69.4686 37.4516 69.6103 37.4516 69.7876C37.4516 70.003 37.3143 70.2594 37.0399 70.5569L36.4538 71.1925H37.5522V71.4194ZM39.2186 70.4863C39.2186 70.8119 39.163 71.0538 39.0518 71.2121C38.9406 71.3703 38.7668 71.4495 38.5304 71.4495C38.297 71.4495 38.1242 71.3724 38.012 71.2181C37.8998 71.0628 37.8417 70.8314 37.8377 70.5239V70.1527C37.8377 69.8312 37.8933 69.5923 38.0045 69.436C38.1157 69.2797 38.29 69.2016 38.5274 69.2016C38.7628 69.2016 38.9361 69.2772 39.0473 69.4285C39.1585 69.5788 39.2156 69.8112 39.2186 70.1257V70.4863ZM38.9406 70.1062C38.9406 69.8708 38.9076 69.6995 38.8415 69.5923C38.7754 69.4841 38.6707 69.43 38.5274 69.43C38.3852 69.43 38.2815 69.4836 38.2164 69.5908C38.1513 69.698 38.1177 69.8627 38.1157 70.0851V70.5299C38.1157 70.7663 38.1498 70.9411 38.2179 71.0543C38.287 71.1665 38.3912 71.2226 38.5304 71.2226C38.6677 71.2226 38.7693 71.1695 38.8355 71.0633C38.9026 70.9571 38.9376 70.7898 38.9406 70.5615V70.1062ZM40.4883 71.4194H40.2088V69.5667L39.6484 69.7726V69.5202L40.4447 69.2211H40.4883V71.4194ZM42.3936 69.2302V69.4661H42.3425C42.1261 69.4701 41.9538 69.5342 41.8256 69.6584C41.6974 69.7826 41.6233 69.9574 41.6032 70.1828C41.7184 70.0506 41.8757 69.9845 42.075 69.9845C42.2654 69.9845 42.4171 70.0516 42.5303 70.1858C42.6445 70.32 42.7016 70.4933 42.7016 70.7057C42.7016 70.9311 42.64 71.1114 42.5168 71.2466C42.3946 71.3819 42.2303 71.4495 42.024 71.4495C41.8146 71.4495 41.6448 71.3693 41.5146 71.2091C41.3844 71.0478 41.3192 70.8404 41.3192 70.587V70.4803C41.3192 70.0776 41.4049 69.7701 41.5762 69.5577C41.7485 69.3444 42.0044 69.2352 42.344 69.2302H42.3936ZM42.0285 70.2159C41.9333 70.2159 41.8457 70.2444 41.7655 70.3015C41.6854 70.3586 41.6298 70.4302 41.5987 70.5164V70.6186C41.5987 70.7989 41.6393 70.9441 41.7204 71.0543C41.8016 71.1645 41.9027 71.2196 42.024 71.2196C42.1492 71.2196 42.2473 71.1735 42.3185 71.0813C42.3906 70.9892 42.4267 70.8685 42.4267 70.7192C42.4267 70.569 42.3901 70.4478 42.317 70.3556C42.2448 70.2624 42.1487 70.2159 42.0285 70.2159Z" fill="#F5F7F6"/>
<path d="M47.9681 71.4194H46.5346V71.2196L47.2919 70.3781C47.4041 70.2509 47.4813 70.1477 47.5233 70.0686C47.5664 69.9885 47.5879 69.9058 47.5879 69.8207C47.5879 69.7065 47.5534 69.6128 47.4843 69.5397C47.4151 69.4666 47.323 69.43 47.2078 69.43C47.0696 69.43 46.9619 69.4696 46.8847 69.5487C46.8086 69.6268 46.7705 69.736 46.7705 69.8763H46.4926C46.4926 69.6749 46.5572 69.5121 46.6864 69.3879C46.8166 69.2637 46.9904 69.2016 47.2078 69.2016C47.4111 69.2016 47.5719 69.2552 47.6901 69.3624C47.8083 69.4686 47.8674 69.6103 47.8674 69.7876C47.8674 70.003 47.7302 70.2594 47.4557 70.5569L46.8697 71.1925H47.9681V71.4194ZM49.6345 70.4863C49.6345 70.8119 49.5789 71.0538 49.4677 71.2121C49.3565 71.3703 49.1827 71.4495 48.9463 71.4495C48.7129 71.4495 48.5401 71.3724 48.4279 71.2181C48.3157 71.0628 48.2576 70.8314 48.2536 70.5239V70.1527C48.2536 69.8312 48.3092 69.5923 48.4204 69.436C48.5316 69.2797 48.7059 69.2016 48.9433 69.2016C49.1787 69.2016 49.352 69.2772 49.4632 69.4285C49.5744 69.5788 49.6315 69.8112 49.6345 70.1257V70.4863ZM49.3565 70.1062C49.3565 69.8708 49.3234 69.6995 49.2573 69.5923C49.1912 69.4841 49.0865 69.43 48.9433 69.43C48.801 69.43 48.6974 69.4836 48.6322 69.5908C48.5671 69.698 48.5336 69.8627 48.5316 70.0851V70.5299C48.5316 70.7663 48.5656 70.9411 48.6338 71.0543C48.7029 71.1665 48.8071 71.2226 48.9463 71.2226C49.0835 71.2226 49.1852 71.1695 49.2513 71.0633C49.3184 70.9571 49.3535 70.7898 49.3565 70.5615V70.1062ZM50.9042 71.4194H50.6247V69.5667L50.0642 69.7726V69.5202L50.8606 69.2211H50.9042V71.4194ZM53.131 69.3879L52.225 71.4194H51.9334L52.8365 69.4601H51.6525V69.2317H53.131V69.3879Z" fill="#F5F7F6"/>
<path d="M57.8128 71.4194H56.3793V71.2196L57.1366 70.3781C57.2488 70.2509 57.326 70.1477 57.368 70.0686C57.4111 69.9885 57.4327 69.9058 57.4327 69.8207C57.4327 69.7065 57.3981 69.6128 57.329 69.5397C57.2599 69.4666 57.1677 69.43 57.0525 69.43C56.9143 69.43 56.8066 69.4696 56.7294 69.5487C56.6533 69.6268 56.6152 69.736 56.6152 69.8763H56.3373C56.3373 69.6749 56.4019 69.5121 56.5311 69.3879C56.6613 69.2637 56.8351 69.2016 57.0525 69.2016C57.2559 69.2016 57.4166 69.2552 57.5348 69.3624C57.653 69.4686 57.7121 69.6103 57.7121 69.7876C57.7121 70.003 57.5749 70.2594 57.3004 70.5569L56.7144 71.1925H57.8128V71.4194ZM59.4792 70.4863C59.4792 70.8119 59.4236 71.0538 59.3124 71.2121C59.2012 71.3703 59.0274 71.4495 58.791 71.4495C58.5576 71.4495 58.3848 71.3724 58.2726 71.2181C58.1604 71.0628 58.1023 70.8314 58.0983 70.5239V70.1527C58.0983 69.8312 58.1539 69.5923 58.2651 69.436C58.3763 69.2797 58.5506 69.2016 58.788 69.2016C59.0234 69.2016 59.1967 69.2772 59.3079 69.4285C59.4191 69.5788 59.4762 69.8112 59.4792 70.1257V70.4863ZM59.2012 70.1062C59.2012 69.8708 59.1682 69.6995 59.102 69.5923C59.0359 69.4841 58.9312 69.43 58.788 69.43C58.6458 69.43 58.5421 69.4836 58.477 69.5908C58.4118 69.698 58.3783 69.8627 58.3763 70.0851V70.5299C58.3763 70.7663 58.4103 70.9411 58.4785 71.0543C58.5476 71.1665 58.6518 71.2226 58.791 71.2226C58.9282 71.2226 59.0299 71.1695 59.096 71.0633C59.1631 70.9571 59.1982 70.7898 59.2012 70.5615V70.1062ZM60.7489 71.4194H60.4694V69.5667L59.9089 69.7726V69.5202L60.7053 69.2211H60.7489V71.4194ZM62.8901 69.8026C62.8901 69.9118 62.861 70.009 62.8029 70.0941C62.7458 70.1793 62.6682 70.2459 62.57 70.294C62.6842 70.3431 62.7744 70.4147 62.8405 70.5089C62.9076 70.603 62.9412 70.7097 62.9412 70.8289C62.9412 71.0182 62.8771 71.169 62.7488 71.2812C62.6216 71.3934 62.4538 71.4495 62.2455 71.4495C62.0351 71.4495 61.8663 71.3934 61.7391 71.2812C61.6129 71.168 61.5498 71.0172 61.5498 70.8289C61.5498 70.7107 61.5818 70.604 61.6459 70.5089C61.711 70.4137 61.8007 70.3416 61.9149 70.2925C61.8177 70.2444 61.7411 70.1778 61.685 70.0926C61.6289 70.0075 61.6009 69.9108 61.6009 69.8026C61.6009 69.6183 61.66 69.4721 61.7782 69.3639C61.8964 69.2557 62.0521 69.2016 62.2455 69.2016C62.4378 69.2016 62.5931 69.2557 62.7113 69.3639C62.8305 69.4721 62.8901 69.6183 62.8901 69.8026ZM62.6632 70.8229C62.6632 70.7007 62.6241 70.601 62.546 70.5239C62.4689 70.4468 62.3677 70.4082 62.2425 70.4082C62.1172 70.4082 62.0166 70.4463 61.9404 70.5224C61.8653 70.5985 61.8277 70.6987 61.8277 70.8229C61.8277 70.9471 61.8643 71.0448 61.9374 71.1159C62.0116 71.187 62.1142 71.2226 62.2455 71.2226C62.3757 71.2226 62.4779 71.187 62.552 71.1159C62.6261 71.0438 62.6632 70.9461 62.6632 70.8229ZM62.2455 69.43C62.1363 69.43 62.0476 69.4641 61.9795 69.5322C61.9124 69.5993 61.8788 69.6909 61.8788 69.8072C61.8788 69.9183 61.9119 70.0085 61.978 70.0776C62.0451 70.1457 62.1343 70.1798 62.2455 70.1798C62.3567 70.1798 62.4453 70.1457 62.5114 70.0776C62.5785 70.0085 62.6121 69.9183 62.6121 69.8072C62.6121 69.696 62.5775 69.6053 62.5084 69.5352C62.4393 69.4651 62.3516 69.43 62.2455 69.43Z" fill="#F5F7F6"/>
<path d="M68.0533 71.4194H66.6198V71.2196L67.3771 70.3781C67.4893 70.2509 67.5665 70.1477 67.6085 70.0686C67.6516 69.9885 67.6731 69.9058 67.6731 69.8207C67.6731 69.7065 67.6386 69.6128 67.5695 69.5397C67.5003 69.4666 67.4082 69.43 67.293 69.43C67.1547 69.43 67.0471 69.4696 66.9699 69.5487C66.8938 69.6268 66.8557 69.736 66.8557 69.8763H66.5778C66.5778 69.6749 66.6424 69.5121 66.7716 69.3879C66.9018 69.2637 67.0756 69.2016 67.293 69.2016C67.4963 69.2016 67.6571 69.2552 67.7753 69.3624C67.8935 69.4686 67.9526 69.6103 67.9526 69.7876C67.9526 70.003 67.8154 70.2594 67.5409 70.5569L66.9549 71.1925H68.0533V71.4194ZM69.7197 70.4863C69.7197 70.8119 69.6641 71.0538 69.5529 71.2121C69.4417 71.3703 69.2679 71.4495 69.0315 71.4495C68.7981 71.4495 68.6253 71.3724 68.5131 71.2181C68.4009 71.0628 68.3428 70.8314 68.3388 70.5239V70.1527C68.3388 69.8312 68.3944 69.5923 68.5056 69.436C68.6168 69.2797 68.7911 69.2016 69.0285 69.2016C69.2639 69.2016 69.4372 69.2772 69.5484 69.4285C69.6596 69.5788 69.7167 69.8112 69.7197 70.1257V70.4863ZM69.4417 70.1062C69.4417 69.8708 69.4086 69.6995 69.3425 69.5923C69.2764 69.4841 69.1717 69.43 69.0285 69.43C68.8862 69.43 68.7826 69.4836 68.7174 69.5908C68.6523 69.698 68.6188 69.8627 68.6168 70.0851V70.5299C68.6168 70.7663 68.6508 70.9411 68.7189 71.0543C68.7881 71.1665 68.8922 71.2226 69.0315 71.2226C69.1687 71.2226 69.2704 71.1695 69.3365 71.0633C69.4036 70.9571 69.4387 70.7898 69.4417 70.5615V70.1062ZM70.9894 71.4194H70.7099V69.5667L70.1494 69.7726V69.5202L70.9458 69.2211H70.9894V71.4194ZM72.8691 70.4578C72.811 70.5269 72.7414 70.5825 72.6603 70.6246C72.5801 70.6666 72.492 70.6877 72.3958 70.6877C72.2696 70.6877 72.1594 70.6566 72.0652 70.5945C71.9721 70.5324 71.8999 70.4453 71.8489 70.3331C71.7978 70.2199 71.7722 70.0951 71.7722 69.9589C71.7722 69.8127 71.7998 69.6809 71.8549 69.5637C71.911 69.4465 71.9901 69.3569 72.0923 69.2948C72.1944 69.2327 72.3137 69.2016 72.4499 69.2016C72.6663 69.2016 72.8366 69.2827 72.9608 69.445C73.086 69.6063 73.1486 69.8267 73.1486 70.1062V70.1873C73.1486 70.613 73.0645 70.9241 72.8962 71.1204C72.7279 71.3158 72.4739 71.4159 72.1343 71.4209H72.0803V71.1865H72.1389C72.3682 71.1825 72.5446 71.1229 72.6678 71.0077C72.791 70.8915 72.8581 70.7082 72.8691 70.4578ZM72.4409 70.4578C72.534 70.4578 72.6197 70.4292 72.6978 70.3721C72.777 70.315 72.8346 70.2444 72.8706 70.1603V70.0491C72.8706 69.8668 72.831 69.7185 72.7519 69.6043C72.6728 69.4901 72.5726 69.433 72.4514 69.433C72.3292 69.433 72.231 69.4801 72.1569 69.5742C72.0828 69.6674 72.0457 69.7906 72.0457 69.9439C72.0457 70.0931 72.0813 70.2164 72.1524 70.3135C72.2245 70.4097 72.3207 70.4578 72.4409 70.4578Z" fill="#F5F7F6"/>
<path d="M78.601 71.4194H77.1675V71.2196L77.9248 70.3781C78.037 70.2509 78.1142 70.1477 78.1562 70.0686C78.1993 69.9885 78.2208 69.9058 78.2208 69.8207C78.2208 69.7065 78.1863 69.6128 78.1172 69.5397C78.048 69.4666 77.9559 69.43 77.8407 69.43C77.7024 69.43 77.5948 69.4696 77.5176 69.5487C77.4415 69.6268 77.4034 69.736 77.4034 69.8763H77.1254C77.1254 69.6749 77.1901 69.5121 77.3193 69.3879C77.4495 69.2637 77.6233 69.2016 77.8407 69.2016C78.044 69.2016 78.2048 69.2552 78.323 69.3624C78.4412 69.4686 78.5003 69.6103 78.5003 69.7876C78.5003 70.003 78.3631 70.2594 78.0886 70.5569L77.5026 71.1925H78.601V71.4194ZM80.2674 70.4863C80.2674 70.8119 80.2118 71.0538 80.1006 71.2121C79.9894 71.3703 79.8156 71.4495 79.5792 71.4495C79.3458 71.4495 79.173 71.3724 79.0608 71.2181C78.9486 71.0628 78.8905 70.8314 78.8865 70.5239V70.1527C78.8865 69.8312 78.9421 69.5923 79.0533 69.436C79.1645 69.2797 79.3388 69.2016 79.5762 69.2016C79.8116 69.2016 79.9849 69.2772 80.0961 69.4285C80.2073 69.5788 80.2644 69.8112 80.2674 70.1257V70.4863ZM79.9894 70.1062C79.9894 69.8708 79.9563 69.6995 79.8902 69.5923C79.8241 69.4841 79.7194 69.43 79.5762 69.43C79.4339 69.43 79.3302 69.4836 79.2651 69.5908C79.2 69.698 79.1665 69.8627 79.1645 70.0851V70.5299C79.1645 70.7663 79.1985 70.9411 79.2666 71.0543C79.3358 71.1665 79.4399 71.2226 79.5792 71.2226C79.7164 71.2226 79.8181 71.1695 79.8842 71.0633C79.9513 70.9571 79.9864 70.7898 79.9894 70.5615V70.1062ZM82.057 71.4194H80.6235V71.2196L81.3808 70.3781C81.493 70.2509 81.5701 70.1477 81.6122 70.0686C81.6553 69.9885 81.6768 69.9058 81.6768 69.8207C81.6768 69.7065 81.6422 69.6128 81.5731 69.5397C81.504 69.4666 81.4118 69.43 81.2966 69.43C81.1584 69.43 81.0507 69.4696 80.9736 69.5487C80.8975 69.6268 80.8594 69.736 80.8594 69.8763H80.5814C80.5814 69.6749 80.646 69.5121 80.7752 69.3879C80.9055 69.2637 81.0793 69.2016 81.2966 69.2016C81.5 69.2016 81.6608 69.2552 81.779 69.3624C81.8972 69.4686 81.9563 69.6103 81.9563 69.7876C81.9563 70.003 81.819 70.2594 81.5446 70.5569L80.9586 71.1925H82.057V71.4194ZM83.7233 70.4863C83.7233 70.8119 83.6677 71.0538 83.5565 71.2121C83.4454 71.3703 83.2716 71.4495 83.0351 71.4495C82.8017 71.4495 82.6289 71.3724 82.5168 71.2181C82.4046 71.0628 82.3465 70.8314 82.3424 70.5239V70.1527C82.3424 69.8312 82.398 69.5923 82.5092 69.436C82.6204 69.2797 82.7947 69.2016 83.0321 69.2016C83.2675 69.2016 83.4408 69.2772 83.552 69.4285C83.6632 69.5788 83.7203 69.8112 83.7233 70.1257V70.4863ZM83.4454 70.1062C83.4454 69.8708 83.4123 69.6995 83.3462 69.5923C83.2801 69.4841 83.1754 69.43 83.0321 69.43C82.8899 69.43 82.7862 69.4836 82.7211 69.5908C82.656 69.698 82.6224 69.8627 82.6204 70.0851V70.5299C82.6204 70.7663 82.6545 70.9411 82.7226 71.0543C82.7917 71.1665 82.8959 71.2226 83.0351 71.2226C83.1724 71.2226 83.2741 71.1695 83.3402 71.0633C83.4073 70.9571 83.4423 70.7898 83.4454 70.5615V70.1062Z" fill="#F5F7F6"/>
<path d="M89.0604 71.4194H87.6269V71.2196L88.3842 70.3781C88.4964 70.2509 88.5736 70.1477 88.6156 70.0686C88.6587 69.9885 88.6802 69.9058 88.6802 69.8207C88.6802 69.7065 88.6457 69.6128 88.5766 69.5397C88.5074 69.4666 88.4153 69.43 88.3001 69.43C88.1619 69.43 88.0542 69.4696 87.977 69.5487C87.9009 69.6268 87.8628 69.736 87.8628 69.8763H87.5849C87.5849 69.6749 87.6495 69.5121 87.7787 69.3879C87.9089 69.2637 88.0827 69.2016 88.3001 69.2016C88.5034 69.2016 88.6642 69.2552 88.7824 69.3624C88.9006 69.4686 88.9597 69.6103 88.9597 69.7876C88.9597 70.003 88.8225 70.2594 88.548 70.5569L87.962 71.1925H89.0604V71.4194ZM90.7268 70.4863C90.7268 70.8119 90.6712 71.0538 90.56 71.2121C90.4488 71.3703 90.275 71.4495 90.0386 71.4495C89.8052 71.4495 89.6324 71.3724 89.5202 71.2181C89.408 71.0628 89.3499 70.8314 89.3459 70.5239V70.1527C89.3459 69.8312 89.4015 69.5923 89.5127 69.436C89.6239 69.2797 89.7982 69.2016 90.0356 69.2016C90.271 69.2016 90.4443 69.2772 90.5555 69.4285C90.6667 69.5788 90.7238 69.8112 90.7268 70.1257V70.4863ZM90.4488 70.1062C90.4488 69.8708 90.4157 69.6995 90.3496 69.5923C90.2835 69.4841 90.1788 69.43 90.0356 69.43C89.8933 69.43 89.7897 69.4836 89.7245 69.5908C89.6594 69.698 89.6259 69.8627 89.6239 70.0851V70.5299C89.6239 70.7663 89.6579 70.9411 89.7261 71.0543C89.7952 71.1665 89.8994 71.2226 90.0386 71.2226C90.1758 71.2226 90.2775 71.1695 90.3436 71.0633C90.4107 70.9571 90.4458 70.7898 90.4488 70.5615V70.1062ZM92.5164 71.4194H91.0829V71.2196L91.8402 70.3781C91.9524 70.2509 92.0295 70.1477 92.0716 70.0686C92.1147 69.9885 92.1362 69.9058 92.1362 69.8207C92.1362 69.7065 92.1017 69.6128 92.0325 69.5397C91.9634 69.4666 91.8713 69.43 91.7561 69.43C91.6178 69.43 91.5101 69.4696 91.433 69.5487C91.3569 69.6268 91.3188 69.736 91.3188 69.8763H91.0408C91.0408 69.6749 91.1054 69.5121 91.2347 69.3879C91.3649 69.2637 91.5387 69.2016 91.7561 69.2016C91.9594 69.2016 92.1202 69.2552 92.2384 69.3624C92.3566 69.4686 92.4157 69.6103 92.4157 69.7876C92.4157 70.003 92.2785 70.2594 92.004 70.5569L91.418 71.1925H92.5164V71.4194ZM93.7245 71.4194H93.445V69.5667L92.8845 69.7726V69.5202L93.6809 69.2211H93.7245V71.4194Z" fill="#F5F7F6"/>
<path d="M98.9713 71.4194H97.5378V71.2196L98.2952 70.3781C98.4073 70.2509 98.4845 70.1477 98.5266 70.0686C98.5696 69.9885 98.5912 69.9058 98.5912 69.8207C98.5912 69.7065 98.5566 69.6128 98.4875 69.5397C98.4184 69.4666 98.3262 69.43 98.211 69.43C98.0728 69.43 97.9651 69.4696 97.888 69.5487C97.8118 69.6268 97.7738 69.736 97.7738 69.8763H97.4958C97.4958 69.6749 97.5604 69.5121 97.6896 69.3879C97.8198 69.2637 97.9936 69.2016 98.211 69.2016C98.4144 69.2016 98.5751 69.2552 98.6933 69.3624C98.8115 69.4686 98.8706 69.6103 98.8706 69.7876C98.8706 70.003 98.7334 70.2594 98.4589 70.5569L97.8729 71.1925H98.9713V71.4194ZM100.638 70.4863C100.638 70.8119 100.582 71.0538 100.471 71.2121C100.36 71.3703 100.186 71.4495 99.9495 71.4495C99.7161 71.4495 99.5433 71.3724 99.4311 71.2181C99.3189 71.0628 99.2608 70.8314 99.2568 70.5239V70.1527C99.2568 69.8312 99.3124 69.5923 99.4236 69.436C99.5348 69.2797 99.7091 69.2016 99.9465 69.2016C100.182 69.2016 100.355 69.2772 100.466 69.4285C100.578 69.5788 100.635 69.8112 100.638 70.1257V70.4863ZM100.36 70.1062C100.36 69.8708 100.327 69.6995 100.261 69.5923C100.194 69.4841 100.09 69.43 99.9465 69.43C99.8043 69.43 99.7006 69.4836 99.6355 69.5908C99.5704 69.698 99.5368 69.8627 99.5348 70.0851V70.5299C99.5348 70.7663 99.5689 70.9411 99.637 71.0543C99.7061 71.1665 99.8103 71.2226 99.9495 71.2226C100.087 71.2226 100.188 71.1695 100.255 71.0633C100.322 70.9571 100.357 70.7898 100.36 70.5615V70.1062ZM102.427 71.4194H100.994V71.2196L101.751 70.3781C101.863 70.2509 101.94 70.1477 101.983 70.0686C102.026 69.9885 102.047 69.9058 102.047 69.8207C102.047 69.7065 102.013 69.6128 101.943 69.5397C101.874 69.4666 101.782 69.43 101.667 69.43C101.529 69.43 101.421 69.4696 101.344 69.5487C101.268 69.6268 101.23 69.736 101.23 69.8763H100.952C100.952 69.6749 101.016 69.5121 101.146 69.3879C101.276 69.2637 101.45 69.2016 101.667 69.2016C101.87 69.2016 102.031 69.2552 102.149 69.3624C102.268 69.4686 102.327 69.6103 102.327 69.7876C102.327 70.003 102.189 70.2594 101.915 70.5569L101.329 71.1925H102.427V71.4194ZM104.155 71.4194H102.722V71.2196L103.479 70.3781C103.591 70.2509 103.668 70.1477 103.711 70.0686C103.754 69.9885 103.775 69.9058 103.775 69.8207C103.775 69.7065 103.741 69.6128 103.671 69.5397C103.602 69.4666 103.51 69.43 103.395 69.43C103.257 69.43 103.149 69.4696 103.072 69.5487C102.996 69.6268 102.958 69.736 102.958 69.8763H102.68C102.68 69.6749 102.744 69.5121 102.874 69.3879C103.004 69.2637 103.178 69.2016 103.395 69.2016C103.598 69.2016 103.759 69.2552 103.877 69.3624C103.995 69.4686 104.055 69.6103 104.055 69.7876C104.055 70.003 103.917 70.2594 103.643 70.5569L103.057 71.1925H104.155V71.4194Z" fill="#F5F7F6"/>
<path d="M108.904 71.4194H107.471V71.2196L108.228 70.3781C108.34 70.2509 108.417 70.1477 108.46 70.0686C108.503 69.9885 108.524 69.9058 108.524 69.8207C108.524 69.7065 108.49 69.6128 108.42 69.5397C108.351 69.4666 108.259 69.43 108.144 69.43C108.006 69.43 107.898 69.4696 107.821 69.5487C107.745 69.6268 107.707 69.736 107.707 69.8763H107.429C107.429 69.6749 107.493 69.5121 107.623 69.3879C107.753 69.2637 107.927 69.2016 108.144 69.2016C108.347 69.2016 108.508 69.2552 108.626 69.3624C108.745 69.4686 108.804 69.6103 108.804 69.7876C108.804 70.003 108.666 70.2594 108.392 70.5569L107.806 71.1925H108.904V71.4194ZM110.571 70.4863C110.571 70.8119 110.515 71.0538 110.404 71.2121C110.293 71.3703 110.119 71.4495 109.883 71.4495C109.649 71.4495 109.476 71.3724 109.364 71.2181C109.252 71.0628 109.194 70.8314 109.19 70.5239V70.1527C109.19 69.8312 109.245 69.5923 109.357 69.436C109.468 69.2797 109.642 69.2016 109.879 69.2016C110.115 69.2016 110.288 69.2772 110.399 69.4285C110.511 69.5788 110.568 69.8112 110.571 70.1257V70.4863ZM110.293 70.1062C110.293 69.8708 110.26 69.6995 110.194 69.5923C110.127 69.4841 110.023 69.43 109.879 69.43C109.737 69.43 109.634 69.4836 109.568 69.5908C109.503 69.698 109.47 69.8627 109.468 70.0851V70.5299C109.468 70.7663 109.502 70.9411 109.57 71.0543C109.639 71.1665 109.743 71.2226 109.883 71.2226C110.02 71.2226 110.121 71.1695 110.188 71.0633C110.255 70.9571 110.29 70.7898 110.293 70.5615V70.1062ZM112.36 71.4194H110.927V71.2196L111.684 70.3781C111.796 70.2509 111.873 70.1477 111.916 70.0686C111.959 69.9885 111.98 69.9058 111.98 69.8207C111.98 69.7065 111.946 69.6128 111.876 69.5397C111.807 69.4666 111.715 69.43 111.6 69.43C111.462 69.43 111.354 69.4696 111.277 69.5487C111.201 69.6268 111.163 69.736 111.163 69.8763H110.885C110.885 69.6749 110.949 69.5121 111.079 69.3879C111.209 69.2637 111.383 69.2016 111.6 69.2016C111.803 69.2016 111.964 69.2552 112.082 69.3624C112.201 69.4686 112.26 69.6103 112.26 69.7876C112.26 70.003 112.122 70.2594 111.848 70.5569L111.262 71.1925H112.36V71.4194ZM113.059 70.1903H113.268C113.399 70.1883 113.502 70.1537 113.577 70.0866C113.653 70.0195 113.69 69.9289 113.69 69.8147C113.69 69.5582 113.562 69.43 113.307 69.43C113.187 69.43 113.091 69.4646 113.018 69.5337C112.947 69.6018 112.912 69.6925 112.912 69.8056H112.634C112.634 69.6323 112.697 69.4886 112.823 69.3744C112.95 69.2592 113.112 69.2016 113.307 69.2016C113.513 69.2016 113.675 69.2562 113.792 69.3654C113.909 69.4746 113.968 69.6263 113.968 69.8207C113.968 69.9158 113.937 70.008 113.875 70.0972C113.814 70.1863 113.73 70.2529 113.624 70.297C113.744 70.3351 113.837 70.3982 113.902 70.4863C113.968 70.5745 114.001 70.6822 114.001 70.8094C114.001 71.0057 113.937 71.1615 113.809 71.2767C113.681 71.3919 113.514 71.4495 113.308 71.4495C113.103 71.4495 112.936 71.3939 112.807 71.2827C112.678 71.1715 112.614 71.0248 112.614 70.8424H112.894C112.894 70.9576 112.931 71.0498 113.006 71.1189C113.082 71.188 113.182 71.2226 113.308 71.2226C113.443 71.2226 113.545 71.1875 113.616 71.1174C113.688 71.0473 113.723 70.9466 113.723 70.8154C113.723 70.6882 113.684 70.5905 113.606 70.5224C113.528 70.4543 113.415 70.4192 113.268 70.4172H113.059V70.1903Z" fill="#F5F7F6"/>
<path d="M119.123 71.4194H117.69V71.2196L118.447 70.3781C118.559 70.2509 118.636 70.1477 118.678 70.0686C118.721 69.9885 118.743 69.9058 118.743 69.8207C118.743 69.7065 118.708 69.6128 118.639 69.5397C118.57 69.4666 118.478 69.43 118.363 69.43C118.224 69.43 118.117 69.4696 118.04 69.5487C117.964 69.6268 117.925 69.736 117.925 69.8763H117.647C117.647 69.6749 117.712 69.5121 117.841 69.3879C117.972 69.2637 118.145 69.2016 118.363 69.2016C118.566 69.2016 118.727 69.2552 118.845 69.3624C118.963 69.4686 119.022 69.6103 119.022 69.7876C119.022 70.003 118.885 70.2594 118.611 70.5569L118.025 71.1925H119.123V71.4194ZM120.789 70.4863C120.789 70.8119 120.734 71.0538 120.623 71.2121C120.511 71.3703 120.338 71.4495 120.101 71.4495C119.868 71.4495 119.695 71.3724 119.583 71.2181C119.471 71.0628 119.413 70.8314 119.409 70.5239V70.1527C119.409 69.8312 119.464 69.5923 119.575 69.436C119.687 69.2797 119.861 69.2016 120.098 69.2016C120.334 69.2016 120.507 69.2772 120.618 69.4285C120.729 69.5788 120.786 69.8112 120.789 70.1257V70.4863ZM120.511 70.1062C120.511 69.8708 120.478 69.6995 120.412 69.5923C120.346 69.4841 120.241 69.43 120.098 69.43C119.956 69.43 119.852 69.4836 119.787 69.5908C119.722 69.698 119.689 69.8627 119.687 70.0851V70.5299C119.687 70.7663 119.721 70.9411 119.789 71.0543C119.858 71.1665 119.962 71.2226 120.101 71.2226C120.238 71.2226 120.34 71.1695 120.406 71.0633C120.473 70.9571 120.508 70.7898 120.511 70.5615V70.1062ZM122.579 71.4194H121.146V71.2196L121.903 70.3781C122.015 70.2509 122.092 70.1477 122.134 70.0686C122.177 69.9885 122.199 69.9058 122.199 69.8207C122.199 69.7065 122.164 69.6128 122.095 69.5397C122.026 69.4666 121.934 69.43 121.819 69.43C121.68 69.43 121.573 69.4696 121.496 69.5487C121.419 69.6268 121.381 69.736 121.381 69.8763H121.103C121.103 69.6749 121.168 69.5121 121.297 69.3879C121.428 69.2637 121.601 69.2016 121.819 69.2016C122.022 69.2016 122.183 69.2552 122.301 69.3624C122.419 69.4686 122.478 69.6103 122.478 69.7876C122.478 70.003 122.341 70.2594 122.067 70.5569L121.481 71.1925H122.579V71.4194ZM124.047 70.6847H124.351V70.9116H124.047V71.4194H123.768V70.9116H122.771V70.7478L123.751 69.2317H124.047V70.6847ZM123.087 70.6847H123.768V69.6118L123.734 69.6719L123.087 70.6847Z" fill="#F5F7F6"/>
<path d="M17.7797 70.6116C17.7797 70.9371 17.7241 71.179 17.6129 71.3373C17.5018 71.4956 17.328 71.5747 17.0915 71.5747C16.8581 71.5747 16.6853 71.4976 16.5732 71.3433C16.461 71.1881 16.4029 70.9567 16.3988 70.6491V70.278C16.3988 69.9564 16.4544 69.7175 16.5656 69.5613C16.6768 69.405 16.8511 69.3268 17.0885 69.3268C17.3239 69.3268 17.4972 69.4025 17.6084 69.5537C17.7196 69.704 17.7767 69.9364 17.7797 70.2509V70.6116ZM17.5018 70.2314C17.5018 69.996 17.4687 69.8247 17.4026 69.7175C17.3365 69.6093 17.2318 69.5552 17.0885 69.5552C16.9463 69.5552 16.8426 69.6088 16.7775 69.716C16.7124 69.8232 16.6788 69.988 16.6768 70.2104V70.6551C16.6768 70.8916 16.7109 71.0664 16.779 71.1795C16.8481 71.2917 16.9523 71.3478 17.0915 71.3478C17.2288 71.3478 17.3305 71.2947 17.3966 71.1886C17.4637 71.0824 17.4987 70.9151 17.5018 70.6867V70.2314Z" fill="#F5F7F6"/>
<path d="M15.0413 62.4236H14.7618V60.5709L14.2014 60.7767V60.5243L14.9977 60.2253H15.0413V62.4236ZM17.2276 61.4905C17.2276 61.816 17.172 62.058 17.0608 62.2162C16.9496 62.3745 16.7758 62.4536 16.5394 62.4536C16.306 62.4536 16.1332 62.3765 16.021 62.2222C15.9088 62.067 15.8507 61.8356 15.8467 61.528V61.1569C15.8467 60.8353 15.9023 60.5964 16.0135 60.4402C16.1247 60.2839 16.299 60.2058 16.5364 60.2058C16.7718 60.2058 16.9451 60.2814 17.0563 60.4326C17.1675 60.5829 17.2246 60.8153 17.2276 61.1299V61.4905ZM16.9496 61.1103C16.9496 60.8749 16.9166 60.7036 16.8504 60.5964C16.7843 60.4882 16.6796 60.4341 16.5364 60.4341C16.3941 60.4341 16.2905 60.4877 16.2254 60.5949C16.1602 60.7021 16.1267 60.8669 16.1247 61.0893V61.534C16.1247 61.7705 16.1587 61.9453 16.2269 62.0585C16.296 62.1706 16.4002 62.2267 16.5394 62.2267C16.6766 62.2267 16.7783 62.1737 16.8444 62.0675C16.9115 61.9613 16.9466 61.794 16.9496 61.5656V61.1103Z" fill="#F5F7F6"/>
<path d="M15.5612 54.8799H14.1277V54.68L14.885 53.8386C14.9972 53.7114 15.0744 53.6082 15.1164 53.5291C15.1595 53.4489 15.1811 53.3663 15.1811 53.2811C15.1811 53.1669 15.1465 53.0733 15.0774 53.0001C15.0083 52.927 14.9161 52.8904 14.8009 52.8904C14.6627 52.8904 14.555 52.93 14.4778 53.0092C14.4017 53.0873 14.3636 53.1965 14.3636 53.3367H14.0857C14.0857 53.1354 14.1503 52.9726 14.2795 52.8484C14.4097 52.7242 14.5835 52.6621 14.8009 52.6621C15.0042 52.6621 15.165 52.7156 15.2832 52.8228C15.4014 52.929 15.4605 53.0708 15.4605 53.2481C15.4605 53.4634 15.3233 53.7199 15.0488 54.0174L14.4628 54.653H15.5612V54.8799ZM17.2276 53.9468C17.2276 54.2723 17.172 54.5143 17.0608 54.6725C16.9496 54.8308 16.7758 54.9099 16.5394 54.9099C16.306 54.9099 16.1332 54.8328 16.021 54.6785C15.9088 54.5233 15.8507 54.2919 15.8467 53.9843V53.6132C15.8467 53.2916 15.9023 53.0527 16.0135 52.8965C16.1247 52.7402 16.299 52.6621 16.5364 52.6621C16.7718 52.6621 16.9451 52.7377 17.0563 52.8889C17.1675 53.0392 17.2246 53.2716 17.2276 53.5861V53.9468ZM16.9496 53.5666C16.9496 53.3312 16.9166 53.1599 16.8504 53.0527C16.7843 52.9445 16.6796 52.8904 16.5364 52.8904C16.3941 52.8904 16.2905 52.944 16.2254 53.0512C16.1602 53.1584 16.1267 53.3232 16.1247 53.5456V53.9903C16.1247 54.2268 16.1587 54.4016 16.2269 54.5148C16.296 54.6269 16.4002 54.683 16.5394 54.683C16.6766 54.683 16.7783 54.63 16.8444 54.5238C16.9115 54.4176 16.9466 54.2503 16.9496 54.0219V53.5666Z" fill="#F5F7F6"/>
<path d="M14.5319 45.8449H14.7408C14.872 45.8428 14.9752 45.8083 15.0503 45.7412C15.1255 45.6741 15.163 45.5834 15.163 45.4692C15.163 45.2128 15.0353 45.0845 14.7799 45.0845C14.6597 45.0845 14.5635 45.1191 14.4914 45.1882C14.4202 45.2563 14.3847 45.347 14.3847 45.4602H14.1067C14.1067 45.2869 14.1698 45.1431 14.296 45.0289C14.4232 44.9137 14.5845 44.8561 14.7799 44.8561C14.9862 44.8561 15.148 44.9107 15.2652 45.0199C15.3824 45.1291 15.441 45.2809 15.441 45.4752C15.441 45.5704 15.41 45.6625 15.3478 45.7517C15.2867 45.8408 15.2031 45.9075 15.0969 45.9515C15.2171 45.9896 15.3098 46.0527 15.3749 46.1409C15.441 46.229 15.4741 46.3367 15.4741 46.4639C15.4741 46.6603 15.41 46.816 15.2817 46.9312C15.1535 47.0464 14.9867 47.104 14.7814 47.104C14.576 47.104 14.4087 47.0484 14.2795 46.9372C14.1513 46.826 14.0872 46.6793 14.0872 46.497H14.3666C14.3666 46.6122 14.4042 46.7043 14.4793 46.7735C14.5545 46.8426 14.6551 46.8771 14.7814 46.8771C14.9156 46.8771 15.0183 46.8421 15.0894 46.772C15.1605 46.7018 15.1961 46.6012 15.1961 46.4699C15.1961 46.3427 15.157 46.245 15.0789 46.1769C15.0007 46.1088 14.888 46.0737 14.7408 46.0717H14.5319V45.8449ZM17.2276 46.1409C17.2276 46.4664 17.172 46.7083 17.0608 46.8666C16.9496 47.0249 16.7758 47.104 16.5394 47.104C16.306 47.104 16.1332 47.0269 16.021 46.8726C15.9088 46.7174 15.8507 46.486 15.8467 46.1784V45.8073C15.8467 45.4857 15.9023 45.2468 16.0135 45.0906C16.1247 44.9343 16.299 44.8561 16.5364 44.8561C16.7718 44.8561 16.9451 44.9318 17.0563 45.083C17.1675 45.2333 17.2246 45.4657 17.2276 45.7802V46.1409ZM16.9496 45.7607C16.9496 45.5253 16.9166 45.354 16.8504 45.2468C16.7843 45.1386 16.6796 45.0845 16.5364 45.0845C16.3941 45.0845 16.2905 45.1381 16.2254 45.2453C16.1602 45.3525 16.1267 45.5173 16.1247 45.7397V46.1844C16.1247 46.4208 16.1587 46.5956 16.2269 46.7088C16.296 46.821 16.4002 46.8771 16.5394 46.8771C16.6766 46.8771 16.7783 46.824 16.8444 46.7179C16.9115 46.6117 16.9466 46.4444 16.9496 46.216V45.7607Z" fill="#F5F7F6"/>
<path d="M15.3013 38.7967H15.6048V39.0236H15.3013V39.5315H15.0218V39.0236H14.0256V38.8598L15.0053 37.3437H15.3013V38.7967ZM14.3411 38.7967H15.0218V37.7239L14.9887 37.784L14.3411 38.7967ZM17.2276 38.5984C17.2276 38.9239 17.172 39.1659 17.0608 39.3241C16.9496 39.4824 16.7758 39.5615 16.5394 39.5615C16.306 39.5615 16.1332 39.4844 16.021 39.3301C15.9088 39.1749 15.8507 38.9435 15.8467 38.6359V38.2648C15.8467 37.9433 15.9023 37.7043 16.0135 37.5481C16.1247 37.3918 16.299 37.3137 16.5364 37.3137C16.7718 37.3137 16.9451 37.3893 17.0563 37.5406C17.1675 37.6908 17.2246 37.9232 17.2276 38.2378V38.5984ZM16.9496 38.2182C16.9496 37.9828 16.9166 37.8115 16.8504 37.7043C16.7843 37.5962 16.6796 37.5421 16.5364 37.5421C16.3941 37.5421 16.2905 37.5957 16.2254 37.7028C16.1602 37.81 16.1267 37.9748 16.1247 38.1972V38.642C16.1247 38.8784 16.1587 39.0532 16.2269 39.1664C16.296 39.2786 16.4002 39.3347 16.5394 39.3347C16.6766 39.3347 16.7783 39.2816 16.8444 39.1754C16.9115 39.0692 16.9466 38.9019 16.9496 38.6735V38.2182Z" fill="#F5F7F6"/>
<path d="M14.2555 31.1983L14.3666 30.1074H15.4876V30.3643H14.6026L14.5364 30.9609C14.6436 30.8978 14.7653 30.8662 14.9016 30.8662C15.1009 30.8662 15.2592 30.9323 15.3764 31.0645C15.4936 31.1958 15.5522 31.3736 15.5522 31.598C15.5522 31.8234 15.4911 32.0012 15.3689 32.1314C15.2477 32.2606 15.0779 32.3252 14.8595 32.3252C14.6662 32.3252 14.5084 32.2716 14.3862 32.1644C14.264 32.0573 14.1944 31.909 14.1773 31.7197H14.4403C14.4573 31.8449 14.5019 31.9396 14.574 32.0037C14.6461 32.0668 14.7413 32.0983 14.8595 32.0983C14.9887 32.0983 15.0899 32.0543 15.163 31.9661C15.2372 31.8779 15.2742 31.7562 15.2742 31.601C15.2742 31.4547 15.2341 31.3375 15.154 31.2494C15.0749 31.1602 14.9692 31.1156 14.837 31.1156C14.7158 31.1156 14.6206 31.1422 14.5515 31.1953L14.4778 31.2554L14.2555 31.1983ZM17.2276 31.3621C17.2276 31.6876 17.172 31.9295 17.0608 32.0878C16.9496 32.2461 16.7758 32.3252 16.5394 32.3252C16.306 32.3252 16.1332 32.2481 16.021 32.0938C15.9088 31.9386 15.8507 31.7072 15.8467 31.3996V31.0285C15.8467 30.7069 15.9023 30.468 16.0135 30.3117C16.1247 30.1555 16.299 30.0773 16.5364 30.0773C16.7718 30.0773 16.9451 30.153 17.0563 30.3042C17.1675 30.4545 17.2246 30.6869 17.2276 31.0014V31.3621ZM16.9496 30.9819C16.9496 30.7465 16.9166 30.5752 16.8504 30.468C16.7843 30.3598 16.6796 30.3057 16.5364 30.3057C16.3941 30.3057 16.2905 30.3593 16.2254 30.4665C16.1602 30.5737 16.1267 30.7385 16.1247 30.9609V31.4056C16.1247 31.642 16.1587 31.8168 16.2269 31.93C16.296 32.0422 16.4002 32.0983 16.5394 32.0983C16.6766 32.0983 16.7783 32.0452 16.8444 31.9391C16.9115 31.8329 16.9466 31.6656 16.9496 31.4372V30.9819Z" fill="#F5F7F6"/>
<path d="M15.2186 22.5629V22.7988H15.1675C14.9512 22.8028 14.7789 22.8669 14.6506 22.9912C14.5224 23.1154 14.4483 23.2902 14.4283 23.5156C14.5435 23.3833 14.7007 23.3172 14.9001 23.3172C15.0904 23.3172 15.2422 23.3843 15.3554 23.5186C15.4696 23.6528 15.5267 23.8261 15.5267 24.0385C15.5267 24.2639 15.465 24.4442 15.3418 24.5794C15.2196 24.7146 15.0553 24.7822 14.849 24.7822C14.6396 24.7822 14.4698 24.7021 14.3396 24.5418C14.2094 24.3806 14.1443 24.1732 14.1443 23.9198V23.8131C14.1443 23.4104 14.2299 23.1029 14.4012 22.8905C14.5735 22.6771 14.8294 22.5679 15.169 22.5629H15.2186ZM14.8535 23.5486C14.7583 23.5486 14.6707 23.5772 14.5905 23.6343C14.5104 23.6914 14.4548 23.763 14.4237 23.8491V23.9513C14.4237 24.1316 14.4643 24.2769 14.5455 24.3871C14.6266 24.4973 14.7278 24.5524 14.849 24.5524C14.9742 24.5524 15.0724 24.5063 15.1435 24.4141C15.2156 24.322 15.2517 24.2012 15.2517 24.052C15.2517 23.9017 15.2151 23.7805 15.142 23.6884C15.0699 23.5952 14.9737 23.5486 14.8535 23.5486ZM17.2276 23.8191C17.2276 24.1446 17.172 24.3866 17.0608 24.5448C16.9496 24.7031 16.7758 24.7822 16.5394 24.7822C16.306 24.7822 16.1332 24.7051 16.021 24.5508C15.9088 24.3956 15.8507 24.1642 15.8467 23.8567V23.4855C15.8467 23.164 15.9023 22.925 16.0135 22.7688C16.1247 22.6125 16.299 22.5344 16.5364 22.5344C16.7718 22.5344 16.9451 22.61 17.0563 22.7613C17.1675 22.9115 17.2246 23.1439 17.2276 23.4585V23.8191ZM16.9496 23.4389C16.9496 23.2035 16.9166 23.0322 16.8504 22.925C16.7843 22.8169 16.6796 22.7628 16.5364 22.7628C16.3941 22.7628 16.2905 22.8164 16.2254 22.9235C16.1602 23.0307 16.1267 23.1955 16.1247 23.4179V23.8627C16.1247 24.0991 16.1587 24.2739 16.2269 24.3871C16.296 24.4993 16.4002 24.5554 16.5394 24.5554C16.6766 24.5554 16.7783 24.5023 16.8444 24.3961C16.9115 24.2899 16.9466 24.1226 16.9496 23.8942V23.4389Z" fill="#F5F7F6"/>
<path d="M15.5402 14.9145L14.6342 16.946H14.3427L15.2457 14.9867H14.0617V14.7583H15.5402V14.9145ZM17.2276 16.0129C17.2276 16.3385 17.1721 16.5804 17.0609 16.7387C16.9497 16.897 16.7759 16.9761 16.5395 16.9761C16.3061 16.9761 16.1333 16.899 16.0211 16.7447C15.9089 16.5894 15.8508 16.358 15.8468 16.0505V15.6794C15.8468 15.3578 15.9024 15.1189 16.0136 14.9626C16.1247 14.8064 16.299 14.7282 16.5365 14.7282C16.7719 14.7282 16.9452 14.8038 17.0564 14.9551C17.1675 15.1054 17.2246 15.3378 17.2276 15.6523V16.0129ZM16.9497 15.6328C16.9497 15.3974 16.9166 15.2261 16.8505 15.1189C16.7844 15.0107 16.6797 14.9566 16.5365 14.9566C16.3942 14.9566 16.2905 15.0102 16.2254 15.1174C16.1603 15.2246 16.1267 15.3894 16.1247 15.6117V16.0565C16.1247 16.2929 16.1588 16.4677 16.2269 16.5809C16.296 16.6931 16.4002 16.7492 16.5395 16.7492C16.6767 16.7492 16.7784 16.6961 16.8445 16.5899C16.9116 16.4837 16.9467 16.3165 16.9497 16.0881V15.6328Z" fill="#F5F7F6"/>
<path d="M120.584 34.9868H110.138L100.051 27.6187L90.0516 35.5121L79.699 31.742L69.8765 46.6502H59.5286L49.362 54.1717L39.451 42.6849L29.3635 46.5433V65.8166H120.649L120.584 34.9868Z" fill="url(#paint0_linear)"/>
<path d="M49.32 54.5297L39.3719 42.9964L29.4564 46.7897L29.2704 46.2969L39.53 42.3734L49.3991 53.8184L59.4401 46.3899H69.7369L79.5967 31.4212L90.005 35.2145L100.041 27.2886L110.222 34.7218H120.584V35.2517H110.05L100.055 27.9487L90.098 35.8095L79.8059 32.0581L70.0205 46.9152H59.6121L49.32 54.5297Z" fill="url(#paint1_linear)"/>
<path d="M30.4884 46.5432C30.4884 47.1661 29.9863 47.6682 29.3634 47.6682C28.7405 47.6682 28.2385 47.1661 28.2385 46.5432C28.2385 45.9203 28.7405 45.4182 29.3634 45.4182C29.9863 45.4182 30.4884 45.9203 30.4884 46.5432Z" fill="#F5F7F6"/>
<path d="M40.5759 42.6848C40.5759 43.3077 40.0738 43.8098 39.4509 43.8098C38.828 43.8098 38.326 43.3077 38.326 42.6848C38.326 42.0619 38.828 41.5598 39.4509 41.5598C40.0738 41.5552 40.5759 42.0619 40.5759 42.6848Z" fill="#F5F7F6"/>
<path d="M50.4868 54.1719C50.4868 54.7948 49.9801 55.2968 49.3618 55.2968C48.7389 55.2968 48.2369 54.7901 48.2369 54.1719C48.2369 53.5489 48.7389 53.0469 49.3618 53.0469C49.9848 53.0469 50.4868 53.5489 50.4868 54.1719Z" fill="#F5F7F6"/>
<path d="M60.6533 46.6501C60.6533 47.273 60.1513 47.7751 59.5284 47.7751C58.9055 47.7751 58.4034 47.2684 58.4034 46.6501C58.4034 46.0272 58.9055 45.5251 59.5284 45.5251C60.1513 45.5251 60.6533 46.0318 60.6533 46.6501Z" fill="#F5F7F6"/>
<path d="M71.006 46.6501C71.006 47.273 70.5039 47.7751 69.881 47.7751C69.2581 47.7751 68.756 47.2684 68.756 46.6501C68.756 46.0272 69.2627 45.5251 69.881 45.5251C70.4993 45.5251 71.006 46.0318 71.006 46.6501Z" fill="#F5F7F6"/>
<path d="M80.8286 31.7419C80.8286 32.3648 80.3266 32.8669 79.7036 32.8669C79.0807 32.8669 78.5787 32.3602 78.5787 31.7419C78.5787 31.119 79.0807 30.6169 79.7036 30.6169C80.3219 30.6169 80.8286 31.119 80.8286 31.7419Z" fill="#F5F7F6"/>
<path d="M91.1765 35.5122C91.1765 36.1351 90.6744 36.6372 90.0515 36.6372C89.4286 36.6372 88.9265 36.1351 88.9265 35.5122C88.9265 34.8893 89.4286 34.3872 90.0515 34.3872C90.6744 34.3872 91.1765 34.8893 91.1765 35.5122Z" fill="#F5F7F6"/>
<path d="M101.176 27.6186C101.176 28.2415 100.669 28.7436 100.051 28.7436C99.4278 28.7436 98.9257 28.2369 98.9257 27.6186C98.9257 26.9957 99.4278 26.4937 100.051 26.4937C100.674 26.4937 101.176 26.9957 101.176 27.6186Z" fill="#F5F7F6"/>
<path d="M111.263 34.9868C111.263 35.6097 110.761 36.1118 110.138 36.1118C109.515 36.1118 109.013 35.6097 109.013 34.9868C109.013 34.3639 109.515 33.8618 110.138 33.8618C110.756 33.8618 111.263 34.3639 111.263 34.9868Z" fill="#F5F7F6"/>
<path d="M121.709 35.0285C121.709 35.6515 121.202 36.1535 120.584 36.1535C119.961 36.1535 119.459 35.6468 119.459 35.0285C119.459 34.4056 119.961 33.9036 120.584 33.9036C121.202 33.9036 121.709 34.4103 121.709 35.0285Z" fill="#F5F7F6"/>
<defs>
<linearGradient id="paint0_linear" x1="75.0058" y1="71.7372" x2="75.0058" y2="34.1957" gradientUnits="userSpaceOnUse">
<stop offset="0.0101" stop-color="white" stop-opacity="0"/>
<stop offset="1" stop-color="white"/>
</linearGradient>
<linearGradient id="paint1_linear" x1="29.4294" y1="40.9092" x2="100.871" y2="40.9092" gradientUnits="userSpaceOnUse">
<stop stop-color="#00EAD1"/>
<stop offset="0.1291" stop-color="#00E0D1"/>
<stop offset="0.3516" stop-color="#00C4CF"/>
<stop offset="0.6406" stop-color="#0097CE"/>
<stop offset="0.9819" stop-color="#0058CB"/>
<stop offset="0.9999" stop-color="#0055CB"/>
</linearGradient>
</defs>
</svg>
