<svg width="683" height="161" viewBox="0 0 683 161" fill="none" xmlns="http://www.w3.org/2000/svg">
<path d="M1.7 156H0.238547V157.461H1.7V156ZM27.32 156V157.461H28.7815V156H27.32ZM27.32 49.425L28.5408 48.6216L25.8585 44.546V49.425H27.32ZM97.46 156L96.2392 156.803L96.6723 157.461H97.46V156ZM123.08 156V157.461H124.541V156H123.08ZM123.08 4.8H124.541V3.33854H123.08V4.8ZM97.46 4.8V3.33854H95.9986V4.8H97.46ZM97.46 111.375L96.2392 112.178L98.9215 116.254V111.375H97.46ZM27.32 4.8L28.5408 3.99656L28.1077 3.33854H27.32V4.8ZM1.7 4.8V3.33854H0.238547V4.8H1.7ZM1.7 157.461H27.32V154.539H1.7V157.461ZM28.7815 156V49.425H25.8585V156H28.7815ZM26.0992 50.2284L96.2392 156.803L98.6808 155.197L28.5408 48.6216L26.0992 50.2284ZM97.46 157.461H123.08V154.539H97.46V157.461ZM124.541 156V4.8H121.619V156H124.541ZM123.08 3.33854H97.46V6.26144H123.08V3.33854ZM95.9986 4.8V111.375H98.9215V4.8H95.9986ZM98.6808 110.572L28.5408 3.99656L26.0992 5.60343L96.2392 112.178L98.6808 110.572ZM27.32 3.33854H1.7V6.26144H27.32V3.33854ZM0.238547 4.8V156H3.16145V4.8H0.238547ZM255.227 149.28L255.989 150.527L255.991 150.526L255.227 149.28ZM280.112 121.56L278.801 120.916L278.798 120.922L280.112 121.56ZM280.112 39.24L278.798 39.878L278.802 39.8873L280.112 39.24ZM255.227 11.625L254.46 12.8689L254.47 12.8746L255.227 11.625ZM177.527 11.625L178.289 12.8724L178.291 12.871L177.527 11.625ZM152.642 39.24L151.331 38.5957L151.329 38.5989L152.642 39.24ZM152.642 121.56L151.328 122.198L151.331 122.204L152.642 121.56ZM177.527 149.28L176.76 150.524L176.77 150.53L177.527 149.28ZM216.377 135.315L216.357 136.776L216.367 136.776L216.377 135.315ZM182.147 120.09L180.988 120.98L182.147 120.09ZM170.807 80.4L169.346 80.3907L169.346 80.3938L170.807 80.4ZM191.072 32.205L191.892 33.4152L191.9 33.4093L191.072 32.205ZM216.377 25.485L216.357 26.9463H216.357L216.377 25.485ZM250.607 40.71L249.444 41.5947L249.448 41.5999L250.607 40.71ZM256.907 109.38L255.556 108.824L255.554 108.829L256.907 109.38ZM241.682 128.595L240.869 127.381L240.863 127.385L241.682 128.595ZM216.377 160.611C231.713 160.611 244.938 157.273 255.989 150.527L254.466 148.033C243.957 154.447 231.282 157.689 216.377 157.689V160.611ZM255.991 150.526C267.087 143.725 275.57 134.27 281.427 122.198L278.798 120.922C273.175 132.51 265.067 141.535 254.464 148.034L255.991 150.526ZM281.424 122.204C287.349 110.14 290.289 96.1925 290.289 80.4H287.366C287.366 95.8275 284.496 109.32 278.801 120.916L281.424 122.204ZM290.289 80.4C290.289 64.5389 287.35 50.5896 281.423 38.5927L278.802 39.8873C284.495 51.4104 287.366 64.9011 287.366 80.4H290.289ZM281.427 38.602C275.569 26.5284 267.085 17.1068 255.985 10.3754L254.47 12.8746C265.07 19.3031 273.176 28.2916 278.798 39.878L281.427 38.602ZM255.995 10.3812C244.943 3.56344 231.715 0.188545 216.377 0.188545V3.11145C231.279 3.11145 243.952 6.38655 254.46 12.8688L255.995 10.3812ZM216.377 0.188545C201.108 0.188545 187.883 3.56417 176.764 10.379L178.291 12.871C188.872 6.38581 201.547 3.11145 216.377 3.11145V0.188545ZM176.766 10.3776C165.738 17.1087 157.257 26.5279 151.331 38.5957L153.954 39.8842C159.647 28.2921 167.757 19.3013 178.289 12.8724L176.766 10.3776ZM151.329 38.5989C145.474 50.5943 142.571 64.5414 142.571 80.4H145.494C145.494 64.8986 148.331 51.4056 153.956 39.881L151.329 38.5989ZM142.571 80.4C142.571 96.19 145.475 110.135 151.328 122.198L153.957 120.922C148.33 109.325 145.494 95.83 145.494 80.4H142.571ZM151.331 122.204C157.257 134.271 165.736 143.723 176.76 150.524L178.295 148.036C167.759 141.537 159.648 132.509 153.954 120.916L151.331 122.204ZM176.77 150.53C187.887 157.272 201.11 160.611 216.377 160.611V157.689C201.544 157.689 188.867 154.448 178.285 148.03L176.77 150.53ZM216.398 133.854C201.549 133.648 190.606 128.709 183.307 119.2L180.988 120.98C188.949 131.351 200.825 136.562 216.357 136.776L216.398 133.854ZM183.307 119.2C175.929 109.588 172.2 96.7055 172.269 80.4062L169.346 80.3938C169.275 97.1345 173.106 110.712 180.988 120.98L183.307 119.2ZM172.269 80.4092C172.338 69.4918 174.031 60.0228 177.306 51.9707L174.599 50.8693C171.154 59.3372 169.417 69.1882 169.346 80.3907L172.269 80.4092ZM177.306 51.9707C180.568 43.9509 185.435 37.7871 191.892 33.4152L190.253 30.9948C183.27 35.7229 178.056 42.369 174.599 50.8693L177.306 51.9707ZM191.9 33.4093C198.316 28.9987 206.435 26.8095 216.357 26.9463L216.398 24.0237C206.02 23.8805 197.269 26.1713 190.244 31.0007L191.9 33.4093ZM216.357 26.9463C231.279 27.1516 242.217 32.0922 249.444 41.5947L251.771 39.8253C243.878 29.4478 231.996 24.2383 216.398 24.0237L216.357 26.9463ZM249.448 41.5999C256.828 51.2138 260.591 64.0994 260.591 80.4H263.514C263.514 63.6606 259.647 50.0862 251.767 39.8201L249.448 41.5999ZM260.591 80.4C260.591 91.24 258.899 100.704 255.556 108.824L258.259 109.936C261.776 101.396 263.514 91.54 263.514 80.4H260.591ZM255.554 108.829C252.293 116.845 247.395 123.008 240.869 127.381L242.496 129.809C249.55 125.082 254.802 118.435 258.261 109.931L255.554 108.829ZM240.863 127.385C234.443 131.732 226.316 133.922 216.387 133.854L216.367 136.776C226.738 136.848 235.482 134.558 242.502 129.805L240.863 127.385ZM341.956 156H340.494V157.461H341.956V156ZM367.261 156V157.461H368.722V156H367.261ZM367.261 28.53V27.0685H365.799V28.53H367.261ZM416.191 28.53V29.9914H417.652V28.53H416.191ZM416.191 4.8H417.652V3.33854H416.191V4.8ZM293.026 4.8V3.33854H291.564V4.8H293.026ZM293.026 28.53H291.564V29.9914H293.026V28.53ZM341.956 28.53H343.417V27.0685H341.956V28.53ZM341.956 157.461H367.261V154.539H341.956V157.461ZM368.722 156V28.53H365.799V156H368.722ZM367.261 29.9914H416.191V27.0685H367.261V29.9914ZM417.652 28.53V4.8H414.729V28.53H417.652ZM416.191 3.33854H293.026V6.26144H416.191V3.33854ZM291.564 4.8V28.53H294.487V4.8H291.564ZM293.026 29.9914H341.956V27.0685H293.026V29.9914ZM340.494 28.53V156H343.417V28.53H340.494ZM418.378 156L416.984 155.561L416.385 157.461H418.378V156ZM444.418 156V157.461H445.491L445.812 156.438L444.418 156ZM454.708 123.24V121.779H453.635L453.313 122.802L454.708 123.24ZM514.348 123.24L515.741 122.798L515.417 121.779H514.348V123.24ZM524.743 156L523.35 156.442L523.673 157.461H524.743V156ZM550.783 156V157.461H552.776L552.177 155.561L550.783 156ZM503.113 4.8L504.507 4.36055L504.184 3.33854H503.113V4.8ZM466.048 4.8V3.33854H464.976L464.654 4.36055L466.048 4.8ZM462.163 99.615L460.769 99.176L460.17 101.076H462.163V99.615ZM484.318 29.265L485.71 28.8203L484.308 24.4309L482.924 28.826L484.318 29.265ZM506.788 99.615V101.076H508.789L508.18 99.1703L506.788 99.615ZM418.378 157.461H444.418V154.539H418.378V157.461ZM445.812 156.438L456.102 123.678L453.313 122.802L443.023 155.562L445.812 156.438ZM454.708 124.701H514.348V121.779H454.708V124.701ZM512.955 123.682L523.35 156.442L526.136 155.558L515.741 122.798L512.955 123.682ZM524.743 157.461H550.783V154.539H524.743V157.461ZM552.177 155.561L504.507 4.36055L501.719 5.23943L549.389 156.439L552.177 155.561ZM503.113 3.33854H466.048V6.26144H503.113V3.33854ZM464.654 4.36055L416.984 155.561L419.772 156.439L467.442 5.23943L464.654 4.36055ZM463.557 100.054L485.712 29.704L482.924 28.826L460.769 99.176L463.557 100.054ZM482.926 29.7097L505.396 100.06L508.18 99.1703L485.71 28.8203L482.926 29.7097ZM506.788 98.1535H462.163V101.076H506.788V98.1535ZM569.766 156H568.305V157.461H569.766V156ZM669.726 143.61L668.657 142.613L669.726 143.61ZM675.606 90.27L674.351 91.0178L674.357 91.0281L675.606 90.27ZM659.121 76.305L658.372 75.0502L655.897 76.5278L658.552 77.6509L659.121 76.305ZM670.146 64.44L668.854 63.7586L668.85 63.7652L670.146 64.44ZM669.411 26.64L668.101 27.2878L668.107 27.2993L669.411 26.64ZM654.816 10.995L654.034 12.2291L654.041 12.2339L654.049 12.2387L654.816 10.995ZM569.766 4.8V3.33854H568.305V4.8H569.766ZM595.386 65.175H593.925V66.6364H595.386V65.175ZM595.386 28.425V26.9635H593.925V28.425H595.386ZM643.476 33.675L644.531 32.6629L643.476 33.675ZM642.951 60.555L643.895 61.6707L643.897 61.6691L642.951 60.555ZM595.386 132.165H593.925V133.626H595.386V132.165ZM595.386 88.8V87.3385H593.925V88.8H595.386ZM649.146 126.285L648.175 125.193L648.167 125.2L649.146 126.285ZM569.766 157.461H635.811V154.539H569.766V157.461ZM635.811 157.461C650.991 157.461 662.738 153.25 670.795 144.607L668.657 142.613C661.315 150.49 650.452 154.539 635.811 154.539V157.461ZM670.795 144.607C678.794 136.026 682.738 124.795 682.738 111.06H679.815C679.815 124.205 676.059 134.674 668.657 142.613L670.795 144.607ZM682.738 111.06C682.738 103.176 680.781 95.9814 676.856 89.5119L674.357 91.0281C677.992 97.0186 679.815 103.684 679.815 111.06H682.738ZM676.862 89.5222C672.978 83.0005 667.23 78.1488 659.691 74.959L658.552 77.6509C665.573 80.6212 670.814 85.0795 674.351 91.0177L676.862 89.5222ZM659.871 77.5598C664.806 74.6132 668.665 70.4514 671.443 65.1148L668.85 63.7652C666.308 68.6486 662.817 72.3968 658.372 75.0502L659.871 77.5598ZM671.439 65.1214C674.298 59.698 675.703 53.4367 675.703 46.38H672.78C672.78 53.0433 671.455 58.822 668.854 63.7586L671.439 65.1214ZM675.703 46.38C675.703 39.3492 674.034 32.5443 670.716 25.9807L668.107 27.2993C671.229 33.4757 672.78 39.8308 672.78 46.38H675.703ZM670.721 25.9922C667.439 19.3551 662.376 13.942 655.584 9.75124L654.049 12.2387C660.417 16.168 665.083 21.1849 668.101 27.2878L670.721 25.9922ZM655.599 9.76093C648.79 5.44133 640.13 3.33854 629.721 3.33854V6.26144C639.752 6.26144 647.822 8.28866 654.034 12.2291L655.599 9.76093ZM629.721 3.33854H569.766V6.26144H629.721V3.33854ZM568.305 4.8V156H571.228V4.8H568.305ZM596.848 65.175V28.425H593.925V65.175H596.848ZM595.386 29.8865H629.406V26.9635H595.386V29.8865ZM629.406 29.8865C635.131 29.8865 639.401 31.5403 642.422 34.6871L644.531 32.6629C640.832 28.8097 635.722 26.9635 629.406 26.9635V29.8865ZM642.422 34.6871C645.498 37.8914 647.055 41.8933 647.055 46.8H649.978C649.978 41.2067 648.175 36.4586 644.531 32.6629L642.422 34.6871ZM647.055 46.8C647.055 52.5016 645.313 56.633 642.005 59.4409L643.897 61.6691C648.01 58.1769 649.978 53.1383 649.978 46.8H647.055ZM642.007 59.4393C638.666 62.2669 634.499 63.7135 629.406 63.7135V66.6364C635.094 66.6364 639.957 65.0031 643.895 61.6707L642.007 59.4393ZM629.406 63.7135H595.386V66.6364H629.406V63.7135ZM596.848 132.165V88.8H593.925V132.165H596.848ZM595.386 90.2614H633.396V87.3385H595.386V90.2614ZM633.396 90.2614C640.169 90.2614 645.241 92.2291 648.821 96.0011L650.941 93.9889C646.682 89.5009 640.764 87.3385 633.396 87.3385V90.2614ZM648.821 96.0011C652.465 99.8395 654.3 104.581 654.3 110.325H657.223C657.223 103.889 655.138 98.4105 650.941 93.9889L648.821 96.0011ZM654.3 110.325C654.3 116.692 652.228 121.59 648.175 125.193L650.117 127.377C654.884 123.14 657.223 117.398 657.223 110.325H654.3ZM648.167 125.2C644.132 128.844 639.003 130.704 632.661 130.704V133.626C639.62 133.626 645.48 131.566 650.126 127.37L648.167 125.2ZM632.661 130.704H595.386V133.626H632.661V130.704Z" fill="#8B8B8B"/>
</svg>
